<?xml version="1.0" encoding="iso-8859-1"?>
<!-- Generator: Adobe Illustrator 19.0.0, SVG Export Plug-In . SVG Version: 6.00 Build 0)  -->
<svg xmlns="http://www.w3.org/2000/svg" xmlns:xlink="http://www.w3.org/1999/xlink" version="1.1" id="Capa_1" x="0px" y="0px" viewBox="0 0 121.669 121.669" style="enable-background:new 0 0 121.669 121.669;" xml:space="preserve" width="512px" height="512px">
<g>
	<path d="M60.834,121.669C27.291,121.669,0,94.379,0,60.834C0,27.29,27.291,0,60.834,0s60.834,27.29,60.834,60.834   C121.669,94.379,94.378,121.669,60.834,121.669z M60.834,6C30.6,6,6,30.599,6,60.834C6,91.07,30.6,115.669,60.834,115.669   s54.834-24.599,54.834-54.835S91.07,6,60.834,6z" fill="#FFFFFF"/>
	<circle cx="26.828" cy="60.835" r="8.364" fill="#FFFFFF"/>
	<circle cx="94.842" cy="60.835" r="8.364" fill="#FFFFFF"/>
	<path d="M44.957,95.753l-1.245-5.869l32.998-7l1.245,5.869L44.957,95.753z" fill="#FFFFFF"/>
</g>
<g>
</g>
<g>
</g>
<g>
</g>
<g>
</g>
<g>
</g>
<g>
</g>
<g>
</g>
<g>
</g>
<g>
</g>
<g>
</g>
<g>
</g>
<g>
</g>
<g>
</g>
<g>
</g>
<g>
</g>
</svg>
