<?xml version="1.0" encoding="iso-8859-1"?>
<!-- Generator: Adobe Illustrator 17.1.0, SVG Export Plug-In . SVG Version: 6.00 Build 0)  -->
<!DOCTYPE svg PUBLIC "-//W3C//DTD SVG 1.1//EN" "http://www.w3.org/Graphics/SVG/1.1/DTD/svg11.dtd">
<svg xmlns="http://www.w3.org/2000/svg" xmlns:xlink="http://www.w3.org/1999/xlink" version="1.1" id="Capa_1" x="0px" y="0px" viewBox="0 0 407.857 407.857" style="enable-background:new 0 0 407.857 407.857;" xml:space="preserve" width="512px" height="512px">
<path d="M398.509,90.309c-3.801-7.973-8.204-12.015-13.087-12.015h-1.077c-0.655,0-1.594,0.216-7.149,1.563  c-63.571,15.42-120.836,23.238-170.205,23.238c-50.526,0-109.768-7.82-176.078-23.242c-5.776-1.344-6.751-1.56-7.404-1.56h-1.074  c-4.879,0-9.278,4.034-13.074,11.989c-8.795,18.43-13.086,56.364-5.278,66.015c1.574,1.94,3.429,3.779,5.498,5.455l0.729,0.598  c1.145,0.928,4.278,2.249,11.889,5.414c22.432,9.331,69.109,28.746,95.537,54.872c15.521,15.341,25.219,45.561,32.3,67.625  c2.395,7.463,4.463,13.907,6.426,18.811c5.026,12.569,33.385,20.41,47.167,20.491h0.61h0.007  c13.768-0.081,42.127-7.922,47.149-20.489c1.965-4.908,4.035-11.357,6.432-18.825c7.081-22.061,16.779-52.274,32.294-67.612  c26.43-26.126,73.106-45.541,95.538-54.872c7.609-3.165,10.743-4.486,11.881-5.408l0.738-0.594c2.069-1.678,3.918-3.518,5.496-5.466  C411.578,146.667,407.297,108.744,398.509,90.309z M102.288,124.815l-1.34,2.125c-3.521,5.583-5.84,15.521-5.153,22.085l0.023,0.222  c0.686,6.564-3.45,9.271-9.191,6.016l-17.267-9.79c-3.509-1.989-5.218-5.441-8.179-6.181c-2.961-0.74-6.092,1.502-10.124,1.607  l-19.843,0.517c-6.598,0.172-8.974-4.163-5.281-9.632l0.125-0.185c3.693-5.47,6.322-15.331,5.841-21.913l-0.183-2.506  c-0.481-6.583,3.07-8.28,7.89-3.771l17.771,16.62c2.848,2.663,3.913,4.166,7.054,4.951c3.141,0.785,5.403,0.113,9.169-0.897  l23.5-6.307C103.474,116.065,105.808,119.233,102.288,124.815z M383.618,144.418l-19.843-0.517c-4.032-0.105-7.482-1.41-10.443-0.67  s-4.351,3.254-7.86,5.243l-17.267,9.79c-5.741,3.255-9.877,0.548-9.191-6.016l0.023-0.222c0.001-0.014,0.002-0.029,0.003-0.043  c-0.111-0.819-0.132-1.725-0.026-2.735l0.023-0.222c0.035-0.338,0.058-0.691,0.078-1.046c-0.315-6.131-2.378-13.515-5.231-18.039  l-1.34-2.125c-1.579-2.504-1.988-11.71,5.189-10.04l23.5,6.307c3.766,1.01,5.557,2.682,8.698,1.897  c3.141-0.785,4.677-3.288,7.524-5.951l17.771-16.62c4.82-4.508,8.371-2.811,7.89,3.771l-0.038,0.518  c0.085,0.731,0.106,1.552,0.038,2.482l-0.183,2.506c-0.004,0.048-0.003,0.101-0.006,0.15c0.342,6.287,2.706,14.111,5.847,18.764  l0.125,0.185C390.511,134.173,393.931,144.98,383.618,144.418z" fill="#FFFFFF"/>
<g>
</g>
<g>
</g>
<g>
</g>
<g>
</g>
<g>
</g>
<g>
</g>
<g>
</g>
<g>
</g>
<g>
</g>
<g>
</g>
<g>
</g>
<g>
</g>
<g>
</g>
<g>
</g>
<g>
</g>
</svg>
