<?xml version="1.0" encoding="iso-8859-1"?>
<!-- Generator: Adobe Illustrator 19.0.0, SVG Export Plug-In . SVG Version: 6.00 Build 0)  -->
<svg xmlns="http://www.w3.org/2000/svg" xmlns:xlink="http://www.w3.org/1999/xlink" version="1.1" id="Layer_1" x="0px" y="0px" viewBox="0 0 512 512" style="enable-background:new 0 0 512 512;" xml:space="preserve" width="512px" height="512px">
<g>
	<g>
		<g>
			<polygon points="183.639,191.799 200.46,191.799 200.46,231.924 216.227,231.924 216.227,191.799 223.647,191.799      223.647,176.032 183.639,176.032    " fill="#FFFFFF"/>
			<polygon points="287.658,191.799 296.476,191.799 296.476,231.924 312.243,231.924 312.243,191.799 327.665,191.799      327.665,176.032 287.658,176.032    " fill="#FFFFFF"/>
			<rect x="248.354" y="472.086" width="16.004" height="15.767" fill="#FFFFFF"/>
			<rect x="248.354" y="496.084" width="16.004" height="15.767" fill="#FFFFFF"/>
			<path d="M384.256,322.175V231.79c17.314-0.312,31.306-14.485,31.306-31.873c0-17.388-13.992-31.56-31.306-31.873V143.79h16.003     V54.156c0-25.449-20.704-46.153-46.153-46.153c-13.066,0-24.966,5.063-33.86,13.322v-8.232C320.245,5.873,314.372,0,307.153,0     H198.689c-52.232,0-94.727,42.494-94.727,94.727v49.063h24.51l0.085,24.24h-0.929c-17.583,0-31.887,14.305-31.887,31.887     c0,17.582,14.305,31.887,31.887,31.887h1.152l0.315,90.153C50.749,347.743,0.423,421.73,0.423,511.973H16.19     c0-71.172,33.685-131.309,88.287-162.028l0.412,162.049l15.767-0.04l-0.432-169.793c2.935-1.261,5.919-2.446,8.954-3.549     c0.281,13.972,2.76,27.566,7.279,40.377L136.895,512l15.767-0.053l-0.336-102.191c4.125,5.865,8.768,11.422,13.91,16.606     c23.979,24.173,55.981,37.486,90.115,37.486c42.893,0,80.92-21.224,104.136-53.72v101.847h15.767V380.472     c4.848-13.01,7.637-27.014,7.964-41.616c2.793,1.028,5.544,2.133,8.258,3.298l-0.432,169.797l15.767,0.04l0.412-162.054     c21.833,12.293,40.512,29.442,55.01,50.726c21.312,31.284,32.577,69.773,32.577,111.307h15.767     C511.579,421.863,461.806,348.043,384.256,322.175z M399.795,199.918c0,8.693-6.921,15.782-15.539,16.092v-32.183     C392.874,184.136,399.795,191.225,399.795,199.918z M127.629,216.039v-0.001c-8.889,0-16.12-7.232-16.12-16.12     c0-8.888,7.232-16.12,16.12-16.12h0.984l0.112,32.242H127.629z M119.73,128.023V94.727c0-43.539,35.421-78.96,78.96-78.96     h105.787v19.757c0,51.003-41.495,92.499-92.499,92.499H119.73z M361.106,375.949l-0.618,1.585     c-16.554,41.3-56.992,70.545-104.136,70.545c-29.897,0-57.926-11.656-78.921-32.822c-11.203-11.293-19.714-24.595-25.215-39.114     l-0.081-0.221c-4.742-12.595-7.222-26.101-7.222-40.009l-0.065-18.696c7.222,2.927,16.995,5.676,28.255,5.676     c8.439,0,17.711-1.557,27.357-5.729v2.772c0,4.477-3.642,8.119-8.12,8.119v15.767h40.007c9.565,0,18.154-4.239,24.004-10.932     c5.85,6.693,14.438,10.932,24.004,10.932h40.007v-15.767c-4.477,0-8.12-3.642-8.12-8.119v-2.978     c7.279,3.022,17.3,5.935,28.889,5.935c8.439,0,17.711-1.557,27.357-5.729v18.776h0.002     C368.489,350.03,365.87,363.517,361.106,375.949z M214.805,328.059c0.92-2.535,1.421-5.27,1.421-8.119v-8.001     c0-8.889,7.232-16.12,16.12-16.12c8.888,0,16.12,7.232,16.12,16.12c0,8.888-7.232,16.12-16.12,16.12H214.805z M297.897,328.059     h-17.541c-8.889,0-16.12-7.232-16.12-16.12c0-8.888,7.232-16.12,16.12-16.12c8.888,0,16.12,7.232,16.12,16.12v8.001     C296.476,322.788,296.977,325.523,297.897,328.059z M368.489,299.54c-30.739,17.652-58.381-1.205-59.586-2.047l-0.078,0.109     c-5.258-10.401-16.041-17.553-28.47-17.553c-0.521,0-1.039,0.015-1.555,0.04c0.928-2.547,1.436-5.295,1.436-8.159v-8.001H264.47     v8.001c0,4.477-3.642,8.119-8.119,8.119c-4.477,0-8.119-3.642-8.119-8.119v-8.001h-15.767v8.001c0,2.864,0.508,5.612,1.436,8.159     c-0.515-0.025-1.033-0.04-1.555-0.04c-12.338,0-23.055,7.049-28.354,17.326l-0.006-0.011c-25.744,17.069-49.955,7.424-59.2,2.469     l-0.546-156.045h67.738c39.099,0,73.422-20.836,92.455-51.985c1.966,28.993,26.165,51.985,55.647,51.985h8.409V299.54z      M360.081,128.022v0.001c-22.07,0-40.024-17.956-40.024-40.024V57.818c0-18.774,15.274-34.049,34.049-34.049     c16.755,0,30.386,13.631,30.386,30.386v73.868H360.081z" fill="#FFFFFF"/>
			<rect x="240.344" y="352.068" width="32.005" height="15.767" fill="#FFFFFF"/>
		</g>
	</g>
</g>
<g>
</g>
<g>
</g>
<g>
</g>
<g>
</g>
<g>
</g>
<g>
</g>
<g>
</g>
<g>
</g>
<g>
</g>
<g>
</g>
<g>
</g>
<g>
</g>
<g>
</g>
<g>
</g>
<g>
</g>
</svg>
