<?xml version="1.0" encoding="iso-8859-1"?>
<!DOCTYPE svg PUBLIC "-//W3C//DTD SVG 1.1//EN" "http://www.w3.org/Graphics/SVG/1.1/DTD/svg11.dtd">
<svg xmlns="http://www.w3.org/2000/svg" xmlns:xlink="http://www.w3.org/1999/xlink" version="1.1" viewBox="0 0 512 512" enable-background="new 0 0 512 512" width="512px" height="512px">
  <g>
    <path d="m256,511.993c-11.289,0-22.797-0.813-34.211-2.406-52.422-6.813-100.852-29.656-139.898-66.047-16.859-15.5-31.578-33.328-43.664-52.906-25-40.313-38.227-86.875-38.227-134.641 0-127.875 95.398-236.922 221.906-253.625 22.688-3.141 45.351-3.156 68.226,4.88498e-15 126.485,16.734 221.868,125.766 221.868,253.625 0,47.766-13.227,94.328-38.25,134.672-12.063,19.547-26.781,37.375-43.719,52.953-38.969,36.313-87.398,59.156-139.969,65.984-11.265,1.579-22.773,2.391-34.062,2.391zm0-480c-9.781,3.55271e-15-19.805,0.703-29.813,2.078-110.742,14.641-194.187,110.031-194.187,221.922 0,41.797 11.563,82.531 33.438,117.797 10.57,17.125 23.406,32.672 38.188,46.266 34.219,31.891 76.523,51.859 122.438,57.828 20.203,2.813 39.82,2.797 59.727,0.016 46.063-5.984 88.367-25.953 122.508-57.766 14.859-13.672 27.695-29.219 38.242-46.313 21.897-35.297 33.459-76.031 33.459-117.828 0-111.891-83.445-207.281-194.094-221.906-0.031,0-0.063,0-0.094-0.016-10.007-1.375-20.031-2.078-29.812-2.078zm32,413.125c-3.703,0-7.328-1.281-10.227-3.688-3.656-3.047-5.773-7.563-5.773-12.313v-128.483c0-6.469 3.898-12.313 9.875-14.781 5.984-2.516 12.852-1.125 17.438,3.469l85.922,85.922c3.094,3.094 4.781,7.313 4.68,11.688-0.094,4.359-1.984,8.5-5.211,11.453-26.125,23.813-58.555,39.891-93.766,46.469-0.977,0.17-1.961,0.264-2.938,0.264zm16-105.859v69.406c16.617-5.234 32.188-13.094 46.117-23.281l-46.117-46.125zm-80,105.859c-0.977,0-1.961-0.094-2.938-0.266-35.211-6.578-67.641-22.656-93.766-46.469-3.227-2.953-5.117-7.094-5.211-11.453-0.102-4.375 1.586-8.594 4.68-11.688l85.922-85.922c4.57-4.594 11.445-5.984 17.438-3.469 5.977,2.469 9.875,8.313 9.875,14.781v128.484c0,4.75-2.117,9.266-5.773,12.313-2.899,2.408-6.524,3.689-10.227,3.689zm-62.117-59.734c13.93,10.188 29.5,18.047 46.117,23.281v-69.406l-46.117,46.125zm251.234-34.188c-4.211,0-8.289-1.656-11.313-4.688l-125.116-125.124c-3-3-4.688-7.063-4.688-11.313v-127.203c0-4.75 2.109-9.25 5.758-12.297 3.648-3.031 8.469-4.281 13.133-3.438 91.039,16.719 157.109,96.141 157.109,188.86 0,30.547-6.938,59.641-20.633,86.469-2.328,4.563-6.695,7.734-11.75,8.531-0.836,0.141-1.672,0.203-2.5,0.203zm-109.117-147.75l103.664,103.672c5.539-16.281 8.336-33.406 8.336-51.125 0-70.688-46.078-132.109-112-152.719v100.172zm-205.117,147.75c-0.828,0-1.664-0.063-2.5-0.203-5.055-0.797-9.422-3.969-11.75-8.531-13.695-26.828-20.633-55.922-20.633-86.469 0-92.719 66.07-172.141 157.109-188.859 4.656-0.828 9.484,0.406 13.133,3.438 3.648,3.047 5.758,7.547 5.758,12.297v127.203c0,4.25-1.688,8.313-4.688,11.313l-125.117,125.124c-3.023,3.031-7.101,4.687-11.312,4.687zm109.117-247.922c-65.922,20.609-112,82.031-112,152.719 0,17.719 2.797,34.844 8.336,51.125l103.664-103.672v-100.172z" fill="#FFFFFF"/>
  </g>
</svg>
