<?xml version="1.0" encoding="iso-8859-1"?>
<!-- Generator: Adobe Illustrator 16.0.0, SVG Export Plug-In . SVG Version: 6.00 Build 0)  -->
<!DOCTYPE svg PUBLIC "-//W3C//DTD SVG 1.1//EN" "http://www.w3.org/Graphics/SVG/1.1/DTD/svg11.dtd">
<svg xmlns="http://www.w3.org/2000/svg" xmlns:xlink="http://www.w3.org/1999/xlink" version="1.1" id="Capa_1" x="0px" y="0px" width="512px" height="512px" viewBox="0 0 41.5 41.5" style="enable-background:new 0 0 41.5 41.5;" xml:space="preserve">
<g>
	<path d="M24.9,34.977c-0.37,1.113-1.572,1.717-2.688,1.346l-9.843-3.272c-1.115-0.37-1.717-1.573-1.347-2.688   c0.37-1.112,1.573-1.715,2.687-1.346l9.846,3.273C24.668,32.658,25.271,33.861,24.9,34.977z M35.332,27.158   c-0.149,0.053-0.306,0.07-0.458,0.072V40.5c0,0.553-0.447,1-1,1h-25.5c-0.552,0-1-0.447-1-1V16.837L7.232,16.72   c-0.254-0.211-0.443-0.469-0.577-0.749c-0.808,0.028-1.466-0.25-1.504-0.666c-0.04-0.42,0.571-0.821,1.387-0.938   c0.083-0.266,0.216-0.521,0.404-0.749l0.432-0.521V1c0-0.552,0.448-1,1-1h25.5c0.553,0,1,0.448,1,1v20.676   c0.459,1.006,0.924,2.186,1.396,3.58C36.537,26.041,36.116,26.893,35.332,27.158z M9.375,22.771   c0.203-0.277,0.508-0.479,0.876-0.517c0.051-0.006,0.825-0.129,2.128-0.862c-0.153-0.242-0.271-0.574-0.328-0.951   c-0.3-0.08-0.589-0.217-0.844-0.428l-1.832-1.52V22.771z M17.248,16.126c1.102-1.329,0.917-3.299-0.412-4.4   c-1.328-1.101-3.299-0.917-4.4,0.412c-1.101,1.329-0.917,3.299,0.412,4.4C14.175,17.641,16.146,17.456,17.248,16.126z    M16.214,17.422l-1.907,2.301c-0.188,0.228-0.414,0.405-0.659,0.536c0.005,0.11,0.005,0.216-0.002,0.319   c0.784-0.559,1.678-1.292,2.667-2.275C16.237,18.012,16.196,17.715,16.214,17.422z M32.874,24.701   c-0.669-1.723-1.406-3.26-1.86-3.854c-0.708,0.247-2.176,1.146-3.56,2.18c-0.078,0.121-0.167,0.244-0.26,0.367   c-0.354,1.32-0.863,4.986,2.475,9.556c0.488,0.668,0.345,1.606-0.326,2.096c-0.267,0.195-0.575,0.289-0.884,0.289   c-0.463,0-0.919-0.213-1.212-0.615c-2.698-3.69-3.325-6.997-3.294-9.368c-0.143-0.074-0.289-0.17-0.439-0.297l-5.703-4.727   c-4.221,4.091-7.149,4.404-7.33,4.419c-0.037,0.001-0.071,0.003-0.105,0.003c-0.413,0-0.771-0.217-0.999-0.535V39.5h23.5   L32.874,24.701L32.874,24.701z M19.338,14.811c0.747-0.98,1.525-2.098,2.324-3.35c-0.25,0.172-0.606,0.304-1.021,0.363   c-0.083,0.266-0.216,0.52-0.404,0.748l-1.907,2.302C18.652,14.791,18.997,14.773,19.338,14.811z M32.874,2h-23.5v8.685l3.497-4.218   c0.188-0.228,0.414-0.405,0.659-0.536c-0.036-0.824,0.244-1.499,0.664-1.538c0.415-0.039,0.812,0.557,0.935,1.356   c0.3,0.079,0.588,0.217,0.843,0.428l3.974,3.293c0.254,0.211,0.443,0.469,0.577,0.75c0.808-0.028,1.465,0.25,1.505,0.665   c0.254-0.41,0.51-0.828,0.77-1.268c0.352-0.596,1.116-0.793,1.711-0.444c0.598,0.35,0.796,1.116,0.444,1.711   c-1.158,1.968-2.286,3.652-3.37,5.102l4.881,4.046c3.95-2.807,5.229-2.268,5.678-2.074c0.239,0.105,0.485,0.298,0.733,0.536   L32.874,2L32.874,2z" fill="#FFFFFF"/>
</g>
<g>
</g>
<g>
</g>
<g>
</g>
<g>
</g>
<g>
</g>
<g>
</g>
<g>
</g>
<g>
</g>
<g>
</g>
<g>
</g>
<g>
</g>
<g>
</g>
<g>
</g>
<g>
</g>
<g>
</g>
</svg>
